# xmcd
#
# Track frame offsets: 
#        150
#        19737
#        41558
#        60908
#
# Disc length: 1066 seconds
#
# Revision: 13
# Processed by: cddbd v1.5.2PL0 Copyright (c) Steve Scherf et al.
# Submitted via: ExactAudioCopy v1.0b3
#
DISCID=26042804
DTITLE=森山直太朗 - さくら (独唱)
DYEAR=2003
DGENRE=J-POP
TTITLE0=さくら (独唱)
TTITLE1=さくら (合唱)
TTITLE2=さくら (伴奏)
TTITLE3=手紙
EXTD=YEAR: 2003
EXTT0=
EXTT1=
EXTT2=
EXTT3=
PLAYORDER=
